# xmcd
#
# Track frame offsets:
#	150
#	24128
#	42268
#	57606
#	74186
#	94345
#	118170
#	144601
#	170317
#	183116
#	202684
#
# Disc length: 2955 seconds
# Revision: 0
# Processed by: cddbd v1.5.2PL0 Copyright (c) Steve Scherf et al.
# Submitted via: dBpowerAMP V12.0
#
DISCID=9b0b890b
DTITLE=Jon Stickley - Lost at Last
DYEAR=2015
DGENRE=Country
TTITLE0=Point to Point
TTITLE1=The High Road
TTITLE2=Rice Dream
TTITLE3=Never Stop
TTITLE4=Darth Radar
TTITLE5=Octopickin
TTITLE6=Slopes
TTITLE7=Goa
TTITLE8=Valse de Wasso
TTITLE9=Pamlico Sound
TTITLE10=Flight of the Durban
EXTD=
EXTT0=
EXTT1=
EXTT2=
EXTT3=
EXTT4=
EXTT5=
EXTT6=
EXTT7=
EXTT8=
EXTT9=
EXTT10=
PLAYORDER=
